<?xml version="1.0" encoding="UTF-8"?>
<svg width="24px" height="24px" viewBox="0 0 24 24" version="1.1" xmlns="http://www.w3.org/2000/svg" xmlns:xlink="http://www.w3.org/1999/xlink">
    <title>1738067D-3A20-4551-9504-8BF19E689E3A</title>
    <g id="-" stroke="none" stroke-width="1" fill="none" fill-rule="evenodd">
        <g id="icongraphy" transform="translate(-791.000000, -2246.000000)">
            <g id="icn/allow/right/icn_allow_right_black_24dp_2px" transform="translate(791.000000, 2246.000000)">
                <rect id="Rectangle-Copy-62" transform="translate(12.000000, 12.000000) scale(-1, 1) translate(-12.000000, -12.000000) " x="0" y="0" width="24" height="24"></rect>
                <path d="M7.97112845,22.0001282 C8.19512845,22.0001282 8.41712845,21.9061282 8.58712845,21.7191282 L16.7471285,12.7161282 C17.0841285,12.3451282 17.0841285,11.7451282 16.7471285,11.3741282 L8.48612845,2.28012815 C8.14712845,1.90812815 7.59712845,1.90612815 7.25612845,2.27712815 C6.91612845,2.64812815 6.91412845,3.25112815 7.25312845,3.62412815 L14.9051285,12.0471282 L7.35412845,20.3771282 C7.01512845,20.7501282 7.01712845,21.3531282 7.35812845,21.7241282 C7.52812845,21.9081282 7.74912845,22.0001282 7.97112845,22.0001282" id="Fill-157" fill="#101C33"></path>
            </g>
        </g>
    </g>
</svg>