<?xml version="1.0" ?>
<!DOCTYPE svg  PUBLIC '-//W3C//DTD SVG 1.1//EN'  'http://www.w3.org/Graphics/SVG/1.1/DTD/svg11.dtd'>
<!-- Uploaded to: SVG Repo, www.svgrepo.com, Generator: SVG Repo Mixer Tools -->
<svg fill="#000000" width="800px" height="800px" viewBox="0 0 846.66 846.66" style="shape-rendering:geometricPrecision; text-rendering:geometricPrecision; image-rendering:optimizeQuality; fill-rule:evenodd; clip-rule:evenodd" version="1.1" xml:space="preserve" xmlns="http://www.w3.org/2000/svg" xmlns:xlink="http://www.w3.org/1999/xlink">
<defs>
<style type="text/css">
   <![CDATA[
    .fil0 {fill:black;fill-rule:nonzero}
   ]]>
  </style>
</defs>
<g id="Layer_x0020_1">
<path class="fil0" d="M714.45 435.47c-3.43,-61.63 -56.15,-107.41 -116.38,-104.07 -60.94,3.39 -107.46,55.46 -104.07,116.38 3.39,60.9 55.53,107.46 116.38,104.07 60.47,-3.39 107.45,-55.71 104.07,-116.38zm-115.39 -86.84c51.29,-2.86 95.31,36.54 98.16,87.83 2.87,51.37 -36.55,95.31 -87.83,98.16 -51.37,2.86 -95.31,-36.54 -98.17,-87.83 -2.85,-51.29 36.55,-95.31 87.84,-98.16zm2.27 41.3c-28.62,1.59 -50.39,25.99 -48.8,54.59 1.59,28.56 26.09,50.38 54.59,48.8 28.56,-1.59 50.38,-26.08 48.8,-54.59 -1.6,-28.62 -25.99,-50.39 -54.59,-48.8zm-470.74 68.39l259.17 0c11.45,0 20.74,9.29 20.74,20.73l0 199.05c0,11.45 -9.29,20.73 -20.74,20.73l-259.17 0c-11.45,0 -20.73,-9.28 -20.73,-20.73l0 -199.05c0,-11.44 9.28,-20.73 20.73,-20.73zm238.44 41.47l-217.71 0 0 157.58 217.71 0 0 -157.58zm-246.73 -176.24c-27.27,0 -27.27,-41.47 0,-41.47l207.33 0c27.27,0 27.27,41.47 0,41.47l-207.33 0zm0 -68.42c-27.27,0 -27.27,-41.47 0,-41.47l207.33 0c27.27,0 27.27,41.47 0,41.47l-207.33 0zm-71.99 -126.48l546.56 0 0 -52.11 -546.56 0 0 52.11zm546.56 41.47l-546.56 0 0 599.99 546.56 0 0 -176.9c-77.4,-3.71 -139.85,-65.44 -144.18,-143.16 -4.66,-83.61 59.5,-155.3 143.11,-159.96l1.07 -0.05 0 -119.92zm133.17 356.34l100.7 90.07c20.22,18.09 -7.32,48.87 -27.53,30.78l-100.7 -90.07c-18.94,16.15 -41.02,26.94 -64.17,32.27l0 201.34c0,11.45 -9.28,20.73 -20.73,20.73l-588.03 0c-11.45,0 -20.73,-9.28 -20.73,-20.73l0 -735.04c0,-11.45 9.28,-20.73 20.73,-20.73l588.03 0c11.45,0 20.73,9.28 20.73,20.73l0 237.92c65.63,15.11 113.66,71.98 117.41,139.47 1.8,32.26 -6.67,65.12 -25.71,93.26z"/>
</g>
</svg>